# xmcd
#
# Track frame offsets: 
#        150
#        11864
#        24132
#        35901
#        46888
#        56547
#        68080
#        81368
#        93095
#        104797
#        117962
#        129821
#        140381
#        150999
#        161022
#        170463
#        181308
#        193510
#        206450
#        217042
#
# Disc length: 3018 seconds
#
# Revision: 0
# Processed by: cddbd v1.5.2PL0 Copyright (c) Steve Scherf et al.
# Submitted via: ExactAudioCopy v0.95b4
#
DISCID=0d0bc814
DTITLE=The Platters - Only You
DYEAR=1956
DGENRE=Jazz
TTITLE0=Only You
TTITLE1=My Prayer
TTITLE2=Thr Great Pretender
TTITLE3=The Magic Touch
TTITLE4=Crying In The Chapel
TTITLE5=Sixteen Tons
TTITLE6=Love All Night
TTITLE7=Maggie Doesn't Work Here Anymore
TTITLE8=Heaven On Earth
TTITLE9=I'm Sorry
TTITLE10=You'll Never Never Know
TTITLE11=Tell The World
TTITLE12=He's Mine
TTITLE13=I'm Just A Dancing Partner
TTITLE14=Winner Takes All
TTITLE15=It Isn't Right
TTITLE16=On My Word Of Honour
TTITLE17=One In A Million
TTITLE18=Take Me Back
TTITLE19=Roses Of Picardy
EXTD=
EXTT0=
EXTT1=
EXTT2=
EXTT3=
EXTT4=
EXTT5=
EXTT6=
EXTT7=
EXTT8=
EXTT9=
EXTT10=
EXTT11=
EXTT12=
EXTT13=
EXTT14=
EXTT15=
EXTT16=
EXTT17=
EXTT18=
EXTT19=
PLAYORDER=
